<?xml version="1.0" encoding="utf-8"?>
<!-- Svg Vector Icons : http://www.onlinewebfonts.com/icon -->
<!DOCTYPE svg PUBLIC "-//W3C//DTD SVG 1.1//EN" "http://www.w3.org/Graphics/SVG/1.1/DTD/svg11.dtd">
<svg version="1.1" xmlns="http://www.w3.org/2000/svg" xmlns:xlink="http://www.w3.org/1999/xlink" x="0px" y="0px" viewBox="0 0 1000 1000" enable-background="new 0 0 1000 1000" xml:space="preserve">
<metadata> Svg Vector Icons : http://www.onlinewebfonts.com/icon </metadata>
<g><path d="M500,10C229.5,10,10,229.5,10,500c0,270.5,219.5,490,490,490c270.5,0,490-219.5,490-490C990,229.5,770.5,10,500,10z M500,945.9C253.5,945.9,54.1,746.5,54.1,500S253.5,54.1,500,54.1S945.9,253.5,945.9,500S746.5,945.9,500,945.9z"/><path d="M341.2,201.6l30.9-30.9L678.4,477L372.6,782.7l-31.4-30.9L616.1,477L341.2,201.6z"/></g>
</svg>